<svg width="90" height="24" viewBox="0 0 90 24" fill="none" xmlns="http://www.w3.org/2000/svg">
<path d="M7.58969 23.0418V4.31238H0V0.958221H19.1701V4.31238H11.5804V23.0418H7.58969Z" fill="#AC6BFF"/>
<path d="M31.9197 4.82652C35.8614 4.82652 39.0932 8.03377 39.0932 12C39.0932 15.9417 35.8859 19.1735 31.9197 19.1735C27.978 19.1735 24.7462 15.9662 24.7462 12C24.7707 8.05825 27.978 4.82652 31.9197 4.82652ZM31.9197 0.958221C25.8235 0.958221 20.8779 5.90376 20.8779 12C20.8779 18.0962 25.8235 23.0418 31.9197 23.0418C38.0159 23.0418 42.9615 18.0962 42.9615 12C42.9859 5.90376 38.0404 0.958221 31.9197 0.958221ZM35.4262 12.7001C34.4714 13.459 33.4132 13.9831 31.9197 13.9831C30.4262 13.9831 29.5494 13.459 28.5946 12.7001L27.9541 13.1271C28.6641 14.2288 30.1325 15.6889 31.9197 15.6889C33.707 15.6889 35.1187 14.2288 35.8532 13.1271L35.4262 12.7001Z" fill="#AC6BFF"/>
<circle cx="29.6622" cy="9.71124" r="1.06744" fill="#AC6BFF"/>
<circle cx="34.1456" cy="9.71124" r="1.06744" fill="#AC6BFF"/>
<path d="M45.5234 23.0418V0.958221H53.7497C57.4466 0.958221 60.3111 1.91305 62.3187 3.79824C64.3263 5.7079 65.3546 8.4255 65.3546 11.9755C65.3546 15.501 64.3508 18.2431 62.3187 20.1528C60.3111 22.0869 57.4466 23.0418 53.7497 23.0418H45.5234ZM49.5386 19.7366H53.4804C58.5728 19.7366 61.119 17.1659 61.119 12C61.119 6.85859 58.5728 4.28789 53.4804 4.28789H49.5386V19.7366Z" fill="#FEC800"/>
<path d="M78.9578 0.958225C85.054 0.958225 89.9996 5.90376 89.9996 12C89.9996 18.0962 85.054 23.0418 78.9578 23.0418C72.8616 23.0418 67.916 18.0962 67.916 12C67.916 5.90376 72.8616 0.958225 78.9578 0.958225ZM78.9578 4.41031C74.7712 4.41031 71.3681 7.81343 71.3681 12C71.3681 16.1866 74.7712 19.5897 78.9578 19.5897C83.1444 19.5897 86.5475 16.1866 86.5475 12C86.5475 7.81343 83.1444 4.41031 78.9578 4.41031Z" fill="#FEC800"/>
<path d="M84.6024 7.70875C84.5233 7.62902 84.4292 7.56573 84.3255 7.52255C84.2219 7.47936 84.1107 7.45712 83.9984 7.45712C83.8861 7.45712 83.7749 7.47936 83.6712 7.52255C83.5676 7.56573 83.4735 7.62902 83.3944 7.70875L77.0568 14.0548L74.3942 11.3837C74.3121 11.3044 74.2152 11.242 74.109 11.2002C74.0028 11.1583 73.8893 11.1378 73.7752 11.1397C73.661 11.1417 73.5484 11.1662 73.4437 11.2117C73.339 11.2572 73.2443 11.3229 73.165 11.405C73.0857 11.4871 73.0233 11.584 72.9814 11.6902C72.9396 11.7964 72.9191 11.9098 72.921 12.024C72.923 12.1381 72.9474 12.2508 72.9929 12.3555C73.0385 12.4602 73.1041 12.5549 73.1862 12.6342L76.4529 15.9008C76.5319 15.9805 76.626 16.0438 76.7297 16.087C76.8334 16.1302 76.9445 16.1524 77.0568 16.1524C77.1691 16.1524 77.2803 16.1302 77.384 16.087C77.4877 16.0438 77.5817 15.9805 77.6608 15.9008L84.6024 8.95925C84.6887 8.87959 84.7576 8.78291 84.8048 8.6753C84.8519 8.56769 84.8762 8.45148 84.8762 8.334C84.8762 8.21652 84.8519 8.10032 84.8048 7.9927C84.7576 7.88509 84.6887 7.78841 84.6024 7.70875Z" fill="#FEC800"/>
</svg>
